<svg t="1691462738974" class="icon" viewBox="0 0 1024 1024" version="1.1" xmlns="http://www.w3.org/2000/svg" p-id="951" width="48" height="48"><path d="M679.402667 90.773333c-60.010667 1.706667-117.290667 23.061333-164.778667 60.736l-2.709333 2.176-2.496-2.005333c-49.6-39.104-110.485333-61.013333-172.672-61.013333-159.850667 0-288.746667 138.026667-288.746667 306.56 0 81.237333 22.528 134.165333 75.456 215.722666 40.704 63.210667 107.946667 134.506667 191.808 209.386667a2351.722667 2351.722667 0 0 0 87.744 74.453333l22.336 17.834667 16.789333 13.013333 2.538667 1.92a109.653333 109.653333 0 0 0 67.306667 22.912 109.866667 109.866667 0 0 0 63.232-19.904l9.386666-7.04 19.968-15.722666 17.002667-13.674667a2421.184 2421.184 0 0 0 87.68-74.752c83.626667-74.88 150.570667-145.792 191.210667-208.32 53.056-81.792 75.541333-134.613333 75.541333-215.829333 0-26.986667-3.306667-53.546667-9.770667-79.210667C932.8 185.408 819.050667 90.666667 687.253333 90.666667l-7.850666 0.106666z m7.850666 74.56c96.554667 0 181.269333 70.570667 206.570667 170.944 4.970667 19.690667 7.509333 40.128 7.509333 60.949334 0 62.976-17.728 104.597333-63.488 175.146666-31.850667 49.024-84.565333 106.666667-150.656 168.064l-18.346666 16.853334-9.408 8.469333c-22.826667 20.416-45.781333 40.106667-68.224 58.709333l-21.44 17.514667-13.013334 10.453333-22.442666 17.536a35.626667 35.626667 0 0 1-22.336 7.829334c-8.042667 0-15.509333-2.56-21.973334-7.552l-11.413333-8.768-19.52-15.424-9.152-7.338667a2277.696 2277.696 0 0 1-84.928-72.106667c-79.274667-70.741333-142.528-137.834667-178.837333-194.197333-45.738667-70.485333-63.488-112.192-63.488-175.189333 0-128.384 96.64-231.893333 214.08-231.893334 54.613333 0 108.565333 23.552 148.416 64.853334a37.333333 37.333333 0 0 0 53.76-0.064c40.192-41.792 92.906667-64.789333 148.330666-64.789334z" fill="#000000" p-id="952"></path><path d="M674.005333 297.130667a34.133333 34.133333 0 0 1 46.506667-12.970667c9.813333 5.546667 22.677333 15.68 35.221333 31.189333 27.733333 34.261333 40.192 79.424 29.077334 133.717334a34.133333 34.133333 0 0 1-66.88-13.696c6.869333-33.493333 0.085333-58.133333-15.253334-77.077334a71.168 71.168 0 0 0-14.485333-13.909333l-1.237333-0.768a34.133333 34.133333 0 0 1-12.949334-46.506667v0.021334z" p-id="953"></path></svg>