<svg t="1691589436527" class="icon" viewBox="0 0 1024 1024" version="1.1" xmlns="http://www.w3.org/2000/svg" p-id="55157" data-darkreader-inline-fill="" width="16" height="16"><path d="M457.984 442.542c9.595-24.75-2.703-37.1-13.67-37.1-50.576 0-116.194 119.665-140.739 119.665-9.595 0-17.756-9.656-17.756-17.92 0-24.77 60.109-82.514 77.875-100.372 54.64-52.275 125.727-92.201 205.025-92.201 58.727 0 121.652 35.789 72.397 169.236l-98.365 268.176c-8.213 20.633-23.214 55.04-23.214 77.045 0 9.595 5.396 19.241 16.384 19.241 40.97 0 116.193-116.9 135.321-116.9 6.79 0 16.384 8.274 16.384 20.624 0 39.874-159.918 210.432-297.953 210.432-49.193 0-83.384-23.327-83.384-75.612 0-65.997 46.49-178.821 56.084-202.21l95.621-242.094z m73.79-270.981c0-60.488 51.947-110.008 112.056-110.008 54.712 0 94.351 37.11 94.351 93.532 0 63.303-51.947 110.06-113.439 110.06-56.023 0-92.969-37.172-92.969-93.584z" p-id="55158"></path></svg>