<svg t="1691464873779" class="icon" viewBox="0 0 1024 1024" version="1.1" xmlns="http://www.w3.org/2000/svg" p-id="904" width="48" height="48"><path d="M96 384A96 96 0 0 1 192 288h640A96 96 0 0 1 928 384v448a96 96 0 0 1-96 96H192A96 96 0 0 1 96 832V384zM192 352a32 32 0 0 0-32 32v448a32 32 0 0 0 32 32h640a32 32 0 0 0 32-32V384a32 32 0 0 0-32-32H192z" p-id="905"></path><path d="M309.248 192a96 96 0 0 1 96-96h213.312a96 96 0 0 1 96 96v149.312h-64V192a32 32 0 0 0-32-32H405.248a32 32 0 0 0-32 32v149.312h-64V192zM352.896 454.4a32 32 0 0 1 45.248 0L511.296 567.68 624.384 454.4a32 32 0 0 1 45.248 45.248l-135.68 135.744a32 32 0 0 1-45.312 0L352.896 499.712a32 32 0 0 1 0-45.248z" p-id="906"></path></svg>