<svg t="1691465232853" class="icon" viewBox="0 0 1024 1024" version="1.1" xmlns="http://www.w3.org/2000/svg" p-id="1187" width="48" height="48"><path d="M128 544A160 160 0 0 1 288 384h448A160 160 0 0 1 896 544v256a160 160 0 0 1-160 160h-448A160 160 0 0 1 128 800v-256zM288 448A96 96 0 0 0 192 544v256A96 96 0 0 0 288 896h448a96 96 0 0 0 96-96v-256A96 96 0 0 0 736 448h-448z" p-id="1188"></path><path d="M288 288a224 224 0 1 1 448 0v128h-64v-128a160 160 0 0 0-320 0v128h-64v-128z" p-id="1189"></path></svg>