<svg t="1691589517783" class="icon" viewBox="0 0 1024 1024" version="1.1" xmlns="http://www.w3.org/2000/svg" p-id="58244" data-darkreader-inline-fill="" width="16" height="16"><path d="M810.666667 128a85.333333 85.333333 0 0 1 85.333333 85.333333v597.333334a85.333333 85.333333 0 0 1-85.333333 85.333333H213.333333a85.333333 85.333333 0 0 1-85.333333-85.333333V213.333333a85.333333 85.333333 0 0 1 85.333333-85.333333h597.333334z m-132.181334 252.586667h-32.512a3.968 3.968 0 0 0-2.986666 1.322666l-0.938667 1.450667-0.298667 1.749333v173.056c0 17.493333 3.712 32.981333 11.093334 46.378667 7.466667 13.397333 17.92 23.722667 31.317333 30.976 13.44 7.253333 28.885333 10.88 46.293333 10.88 17.706667 0 33.28-3.626667 46.677334-10.88 13.44-7.253333 23.808-17.578667 31.146666-30.976a91.733333 91.733333 0 0 0 10.624-37.76l0.298667-8.618667V385.109333a4.48 4.48 0 0 0-3.114667-4.352L814.933333 380.586667h-32.554666a3.968 3.968 0 0 0-2.986667 1.322666l-0.938667 1.450667-0.298666 1.749333V558.933333c0 14.762667-4.352 26.794667-13.098667 36.053334-8.704 9.258667-20.266667 13.866667-34.645333 13.866666-14.378667 0-25.898667-4.608-34.645334-13.866666a48.469333 48.469333 0 0 1-12.8-29.866667l-0.256-6.186667V385.109333a4.48 4.48 0 0 0-3.114666-4.352l-1.152-0.170666z m-386.730666-2.986667c-25.173333 0-45.354667 6.4-60.458667 19.157333-15.061333 12.757333-22.613333 30.165333-22.613333 52.181334 0 14.762667 3.498667 27.093333 10.453333 36.949333 6.954667 9.898667 15.573333 17.706667 25.984 23.466667 10.368 5.76 23.893333 11.904 40.618667 18.432 14.848 5.973333 26.026667 11.008 33.408 15.018666 7.424 3.968 13.141333 8.405333 17.152 13.312 4.010667 4.864 6.016 10.837333 6.016 17.834667 0 10.24-3.669333 18.645333-10.965334 25.173333-7.296 6.485333-18.133333 9.728-32.512 9.728-16.725333 0-29.952-3.84-39.594666-11.434666a35.456 35.456 0 0 1-14.208-23.893334l-0.298667-4.821333v-7.168a4.48 4.48 0 0 0-3.114667-4.352l-1.109333-0.128h-31.488a3.968 3.968 0 0 0-2.986667 1.28l-0.938666 1.493333-0.298667 1.706667v9.386667c0 15.274667 3.712 28.586667 11.136 39.808 7.424 11.264 17.962667 20.053333 31.658667 26.282666 13.653333 6.272 29.696 9.386667 48.042666 9.386667 27.136 0 48.512-6.613333 64.170667-19.882667 15.658667-13.269333 23.509333-31.146667 23.509333-53.717333 0-14.762667-3.584-27.093333-10.794666-36.949333a78.549333 78.549333 0 0 0-25.770667-23.082667 386.176 386.176 0 0 0-40.106667-18.432 372.053333 372.053333 0 0 1-35.029333-14.805333 51.072 51.072 0 0 1-16.981333-12.970667 28.714667 28.714667 0 0 1-5.632-18.346667c0-10.538667 3.584-18.688 10.752-24.448 7.210667-5.76 17.28-8.618667 30.250666-8.618666 16 0 28.586667 4.053333 37.632 12.202666 7.552 6.784 11.946667 14.805333 13.226667 24.106667l0.426667 5.717333v4.138667a4.48 4.48 0 0 0 3.072 4.352l1.152 0.170667h31.786666c1.194667 0 2.176-0.426667 2.986667-1.322667l0.938667-1.450667 0.341333-1.706666v-6.4a72.533333 72.533333 0 0 0-11.306667-40.362667 75.776 75.776 0 0 0-31.658666-27.221333 106.965333 106.965333 0 0 0-46.848-9.770667z m169.685333 2.986667h-32.512a3.968 3.968 0 0 0-2.986667 1.322666l-0.938666 1.450667-0.298667 1.749333v253.781334a4.48 4.48 0 0 0 3.114667 4.352l1.109333 0.170666h32.512c1.194667 0 2.176-0.426667 2.986667-1.322666l0.938666-1.450667 0.341334-1.749333v-79.573334l0.170666-1.237333 0.512-1.408 26.154667-32.298667c0.554667-0.938667 1.152-1.066667 1.792-0.469333l0.682667 0.853333 69.973333 115.626667a5.845333 5.845333 0 0 0 2.986667 2.688l2.005333 0.341333h37.12c2.346667 0 3.541333-0.853333 3.541333-2.645333a7.381333 7.381333 0 0 0-0.341333-1.322667l-0.384-1.28-86.954667-143.786666a1.877333 1.877333 0 0 1-0.170666-1.706667l0.512-0.938667 80.938666-105.514666a6.656 6.656 0 0 0 1.066667-2.986667c0-1.28-0.64-2.133333-1.962667-2.474667l-1.578666-0.170666h-36.736a6.4 6.4 0 0 0-3.797334 1.194666l-1.493333 1.450667-91.946667 115.242667c-0.426667 0.512-0.938667 0.64-1.408 0.384l-0.512-0.554667-0.170666-0.938667V385.109333a4.48 4.48 0 0 0-3.157334-4.352l-1.109333-0.170666z" p-id="58245" data-darkreader-inline-fill="" style="--darkreader-inline-fill: #3d4245;"></path></svg>