<svg t="1691589574953" class="icon" viewBox="0 0 1024 1024" version="1.1" xmlns="http://www.w3.org/2000/svg" p-id="59492" data-darkreader-inline-fill="" width="16" height="16"><path d="M998.4 352l-76.8-192c0 0 0 0 0 0C896 83.2 844.8 64 832 64c0 0-6.4 0-6.4 0L198.4 64C179.2 64 160 70.4 140.8 89.6 121.6 102.4 108.8 128 96 153.6 38.4 288 6.4 371.2 0 416c0 0 0 6.4 0 6.4l0 6.4c0 0 0 6.4 0 12.8 0 64 44.8 115.2 102.4 134.4l0 281.6c0 57.6 51.2 102.4 108.8 102.4l608 0c57.6 0 108.8-44.8 108.8-102.4L928 569.6C985.6 550.4 1024 499.2 1024 435.2c0 0 0-6.4 0-6.4C1024 409.6 1017.6 384 998.4 352L998.4 352zM812.8 902.4 211.2 902.4c-25.6 0-51.2-19.2-51.2-51.2L160 582.4c44.8 0 83.2-19.2 108.8-44.8 6.4-6.4 12.8-12.8 12.8-19.2 0 6.4 6.4 6.4 6.4 12.8 32 32 64 51.2 102.4 51.2 38.4 0 76.8-12.8 102.4-32C499.2 544 505.6 537.6 512 531.2c6.4 6.4 12.8 12.8 19.2 12.8 25.6 19.2 64 32 102.4 32 38.4 0 70.4-12.8 102.4-44.8 6.4-6.4 6.4-6.4 12.8-12.8 0 6.4 6.4 6.4 12.8 12.8 25.6 25.6 64 44.8 115.2 44.8l0 275.2C870.4 883.2 844.8 902.4 812.8 902.4L812.8 902.4zM966.4 435.2C966.4 435.2 966.4 435.2 966.4 435.2 966.4 435.2 966.4 435.2 966.4 435.2c0 51.2-38.4 89.6-89.6 89.6-32 0-57.6-6.4-76.8-25.6C780.8 480 780.8 448 780.8 448c0-12.8-12.8-25.6-25.6-32-12.8 0-32 6.4-32 25.6-6.4 38.4-44.8 83.2-89.6 83.2-44.8 0-89.6-19.2-89.6-70.4 0-12.8-12.8-25.6-32-25.6-19.2 0-32 12.8-32 25.6 0 51.2-44.8 70.4-89.6 70.4-25.6 0-44.8-19.2-57.6-32C313.6 473.6 300.8 448 300.8 422.4c0 0 0 0 0 0 0-12.8-19.2-25.6-32-25.6-12.8 0-25.6 12.8-25.6 32 0 0 6.4 44.8-19.2 70.4C204.8 518.4 185.6 524.8 147.2 524.8c-51.2 0-89.6-38.4-89.6-89.6 0 0 0 0 0 0 0 0 0 0 0-6.4 0 0 0-6.4 0-6.4l0-6.4C64 384 96 294.4 153.6 172.8c0 0 0 0 0 0C166.4 134.4 192 121.6 198.4 121.6l627.2 0c6.4 0 25.6 12.8 44.8 57.6l76.8 192c0 0 0 0 0 0C966.4 403.2 966.4 416 966.4 435.2 966.4 428.8 966.4 428.8 966.4 435.2L966.4 435.2zM966.4 435.2" p-id="59493" data-darkreader-inline-fill="" style="--darkreader-inline-fill: #703030;"></path></svg>